<svg id="baseline-local_grocery_store-24px" xmlns="http://www.w3.org/2000/svg" width="18" height="18" viewBox="0 0 18 18">
  <defs>
    <style>
      .cls-1 {
        fill: #fefefe;
      }

      .cls-2 {
        fill: none;
      }
    </style>
  </defs>
  <path id="Path_3" data-name="Path 3" class="cls-1" d="M5.5,14A1.5,1.5,0,1,0,7,15.5,1.5,1.5,0,0,0,5.5,14ZM1,2V3.5H2.5L5.2,9.193,4.188,11.03A1.45,1.45,0,0,0,4,11.75a1.5,1.5,0,0,0,1.5,1.5h9v-1.5H5.815a.186.186,0,0,1-.187-.187l.023-.09.675-1.222h5.588a1.493,1.493,0,0,0,1.312-.773L15.91,4.61A.733.733,0,0,0,16,4.25a.752.752,0,0,0-.75-.75H4.158L3.452,2H1ZM13,14a1.5,1.5,0,1,0,1.5,1.5A1.5,1.5,0,0,0,13,14Z" transform="translate(-0.25 -0.5)"/>
  <path id="Path_4" data-name="Path 4" class="cls-2" d="M0,0H18V18H0Z"/>
</svg>
